<svg xmlns="http://www.w3.org/2000/svg" viewBox="0 0 512 512" role="img" aria-label="Law gavel icon">
  <!-- Font Awesome Free: gavel icon, styled as site favicon -->
  <rect width="512" height="512" rx="96" fill="#0C0A09"/>
  <g transform="translate(64 64) scale(0.75)" fill="#FAFAF9">
    <path d="M318.6 9.4c-12.5-12.5-32.8-12.5-45.3 0l-120 120c-12.5 12.5-12.5 32.8 0 45.3l16 16-65.9 65.9c-12.5-12.5-32.8-12.5-45.3 0L9.4 305.4c-12.5 12.5-12.5 32.8 0 45.3l152 152c12.5 12.5 32.8 12.5 45.3 0l48.8-48.8c12.5-12.5 12.5-32.8 0-45.3l65.9-65.9 16 16c12.5 12.5 32.8 12.5 45.3 0l120-120c12.5-12.5 12.5-32.8 0-45.3l-184-184zM196.7 151.9 295.9 52.7l163.4 163.4-99.2 99.2-16-16L212.7 167.9l-16-16zm-16 293.5L66.6 331.3l14.1-14.1 114.1 114.1-14.1 14.1zm29.4-82.1-38.6-38.6 65.9-65.9 38.6 38.6-65.9 65.9z"/>
  </g>
</svg>
